<svg width="32" height="32" viewBox="0 0 32 32" fill="none" xmlns="http://www.w3.org/2000/svg">
<circle opacity="0.6" cx="16" cy="16" r="16" fill="#757575"/>
<path d="M22.5475 13.5777L18.3506 12.9846L16.4744 9.28611C16.4232 9.18485 16.3389 9.10287 16.2348 9.05305C15.9736 8.92768 15.6562 9.03215 15.5256 9.28611L13.6495 12.9846L9.45257 13.5777C9.33686 13.5937 9.23107 13.6468 9.15007 13.7272C9.05215 13.825 8.99819 13.9567 9.00005 14.0932C9.00191 14.2297 9.05944 14.36 9.15999 14.4553L12.1965 17.334L11.4791 21.3989C11.4623 21.4935 11.4731 21.5907 11.5102 21.6796C11.5473 21.7686 11.6093 21.8456 11.6892 21.902C11.769 21.9584 11.8635 21.9919 11.962 21.9987C12.0604 22.0055 12.1588 21.9854 12.2461 21.9406L16 20.0214L19.754 21.9406C19.8565 21.9936 19.9755 22.0113 20.0895 21.992C20.3771 21.9438 20.5705 21.6786 20.521 21.3989L19.8036 17.334L22.8401 14.4553C22.9227 14.3765 22.9773 14.2736 22.9938 14.1611C23.0385 13.8798 22.8368 13.6195 22.5475 13.5777ZM18.5258 16.9289L19.1225 20.3091L16 18.7147L12.8776 20.3108L13.4743 16.9306L10.9485 14.5356L14.4396 14.0422L16 10.9674L17.5605 14.0422L21.0516 14.5356L18.5258 16.9289Z" fill="white"/>
</svg>
